<svg viewBox="5 20 175 175" xmlns="http://www.w3.org/2000/svg">
  <path fill="#8A3FFC" d="M24.2,-45C35.3,-35.5,51,-37,56.8,-31.3C62.6,-25.7,58.5,-12.8,58.4,-0.1C58.2,12.7,62.1,25.4,60.7,38.7C59.4,52,52.8,66,41.8,72.8C30.8,79.7,15.4,79.5,2.3,75.6C-10.8,71.7,-21.7,64,-29.8,55.5C-38,46.9,-43.4,37.6,-53,28.2C-62.6,18.8,-76.4,9.4,-75.8,0.4C-75.1,-8.7,-60.2,-17.4,-49.9,-25.6C-39.6,-33.9,-34.1,-41.6,-26.6,-53.2C-19,-64.8,-9.5,-80.2,-1.5,-77.6C6.5,-75,13.1,-54.5,24.2,-45Z" transform="translate(100 100)" />
</svg>